<svg width="24" height="24" viewBox="0 0 24 24" xmlns="http://www.w3.org/2000/svg"><title>planet</title><path d="M18.957 11.217c-1.003 1.352-2.221 2.754-3.604 4.136-5.156 5.157-10.584 8.03-12.66 5.954-1.236-1.237-.772-3.468.845-6.237A9 9 0 0 1 15.071 3.538c2.768-1.617 5-2.081 6.236-.845 1.198 1.199.747 3.514-.84 6.25a9.003 9.003 0 0 1-7.32 11.985 1 1 0 0 1-.252-1.985 7.003 7.003 0 0 0 6.062-7.726zM18.21 8.77a7 7 0 1 0-9.443 9.443c1.648-1.073 3.447-2.549 5.171-4.273 1.724-1.724 3.2-3.522 4.272-5.17zM6.786 19.338a9.011 9.011 0 0 1-2.123-2.124c-.675 1.423-.823 2.411-.556 2.679.254.253 1.234.13 2.679-.555zM17.214 4.663a9.051 9.051 0 0 1 2.123 2.124c.685-1.445.809-2.426.556-2.68-.268-.267-1.256-.12-2.68.556z" fill="#000" fill-rule="nonzero"/></svg>